<svg xmlns="http://www.w3.org/2000/svg" viewBox="0 0 1024 1024">
  <!-- ITAN: the continent, sunset gradient, nothing else -->
  <defs>
    <linearGradient id="sun" x1="0" y1="0" x2="1" y2="1">
      <stop offset="0" stop-color="#FFB938"/>
      <stop offset="1" stop-color="#FF6B57"/>
    </linearGradient>
    <filter id="glow" x="-30%" y="-30%" width="160%" height="160%">
      <feGaussianBlur stdDeviation="40"/>
    </filter>
  </defs>
  <rect width="1024" height="1024" rx="225" fill="#191210"/>
  <g transform="translate(150,98) scale(0.722)">
    <path id="af" d="M194,30 L319,18 L417,15 L493,98 L514,105 L556,89 L611,90 L694,102 L722,105 L729,121 L747,163 L794,277 L826,338 L879,383 L903,416 L944,402 L990,395 L971,452 L907,542 L868,578 L829,633 L823,675 L836,727 L843,791 L790,842 L761,871 L769,933 L730,963 L708,1023 L633,1084 L556,1097 L533,1083 L526,1070 L506,1003 L479,918 L447,801 L464,762 L461,705 L449,663 L400,583 L408,566 L412,512 L325,475 L275,490 L222,493 L128,478 L94,445 L88,429 L61,393 L35,351 L49,331 L42,256 L57,215 L94,164 L144,115 L172,66 L183,60 Z"
      fill="#FF6B57" opacity=".3" filter="url(#glow)"/>
    <path d="M194,30 L319,18 L417,15 L493,98 L514,105 L556,89 L611,90 L694,102 L722,105 L729,121 L747,163 L794,277 L826,338 L879,383 L903,416 L944,402 L990,395 L971,452 L907,542 L868,578 L829,633 L823,675 L836,727 L843,791 L790,842 L761,871 L769,933 L730,963 L708,1023 L633,1084 L556,1097 L533,1083 L526,1070 L506,1003 L479,918 L447,801 L464,762 L461,705 L449,663 L400,583 L408,566 L412,512 L325,475 L275,490 L222,493 L128,478 L94,445 L88,429 L61,393 L35,351 L49,331 L42,256 L57,215 L94,164 L144,115 L172,66 L183,60 Z"
      fill="url(#sun)"/>
    <path d="M962,755 L976,814 L938,946 L905,958 L879,908 L889,821 L948,773 Z" fill="url(#sun)"/>
  </g>
</svg>
